<svg width="16" height="16" viewBox="0 0 16 16" fill="none" xmlns="http://www.w3.org/2000/svg">
<path d="M13.6978 13.8281C13.6978 14.308 13.4959 14.4 13.1645 14.4H11.6004C11.269 14.4 10.9937 14.2707 10.7902 13.9942L5.30757 6.67205H5.2703V13.8465C5.2703 14.2523 5.08625 14.3994 4.71872 14.3994H3.0072C2.58405 14.3994 2.39999 14.3075 2.39999 13.8643V2.17186C2.39999 1.69253 2.62074 1.6 3.0072 1.6H4.55245C4.91998 1.6 5.10403 1.71092 5.30644 1.98737L10.7891 9.3647H10.8257V2.1345C10.8257 1.72931 11.0281 1.6 11.3962 1.6H13.1812C13.6594 1.6 13.6961 1.85806 13.6961 2.17186V13.8276L13.6978 13.8281Z" fill="black"/>
</svg>
